<?xml version="1.0" encoding="UTF-8"?>
<svg width="130px" height="23px" viewBox="0 0 130 23" version="1.1" xmlns="http://www.w3.org/2000/svg" xmlns:xlink="http://www.w3.org/1999/xlink">
    <!-- Generator: Sketch 60 (88103) - https://sketch.com -->
    <title>CORWIN</title>
    <desc>Created with Sketch.</desc>
    <g id="Page-1" stroke="none" stroke-width="1" fill="none" fill-rule="evenodd">
        <g id="Corvin-Landing-x1920_header" transform="translate(-191.000000, -19.000000)" fill="#FFFFFF" fill-rule="nonzero">
            <path d="M202.462,41.965 C208.631,41.965 211.793,37.873 212.63,34.494 L208.631,33.285 C208.042,35.331 206.213,37.78 202.462,37.78 C198.928,37.78 195.642,35.207 195.642,30.526 C195.642,25.535 199.114,23.179 202.4,23.179 C206.213,23.179 207.918,25.504 208.445,27.612 L212.475,26.341 C211.607,22.776 208.476,19.056 202.4,19.056 C196.51,19.056 191.209,23.52 191.209,30.526 C191.209,37.532 196.324,41.965 202.462,41.965 Z M219.109,30.495 C219.109,25.535 222.581,23.179 225.96,23.179 C229.37,23.179 232.842,25.535 232.842,30.495 C232.842,35.455 229.37,37.811 225.96,37.811 C222.581,37.811 219.109,35.455 219.109,30.495 Z M214.676,30.526 C214.676,37.594 220.008,41.965 225.96,41.965 C231.943,41.965 237.275,37.594 237.275,30.526 C237.275,23.427 231.943,19.056 225.96,19.056 C220.008,19.056 214.676,23.427 214.676,30.526 Z M251.845,41.5 L256.619,41.5 L251.907,32.51 C254.79,31.673 256.588,29.348 256.588,26.279 C256.588,22.466 253.86,19.521 249.582,19.521 L240.995,19.521 L240.995,41.5 L245.304,41.5 L245.304,33.037 L247.536,33.037 L251.845,41.5 Z M245.304,29.348 L245.304,23.241 L248.776,23.241 C250.946,23.241 252.217,24.45 252.217,26.31 C252.217,28.108 250.946,29.348 248.776,29.348 L245.304,29.348 Z M280.737,34.711 L275.839,19.521 L271.406,19.521 L266.539,34.649 L262.509,19.521 L257.983,19.521 L264.09,41.5 L268.554,41.5 L273.576,25.845 L278.598,41.5 L283,41.5 L289.076,19.521 L284.705,19.521 L280.737,34.711 Z M296.299,41.5 L296.299,19.521 L291.959,19.521 L291.959,41.5 L296.299,41.5 Z M320.076,41.5 L315.581,41.5 L305.599,25.907 L305.599,41.5 L301.321,41.5 L301.321,19.521 L306.653,19.521 L315.798,34.06 L315.798,19.521 L320.076,19.521 L320.076,41.5 Z" id="CORWIN"></path>
        </g>
    </g>
</svg>