<?xml version="1.0" encoding="UTF-8"?>
<svg width="83px" height="12px" viewBox="0 0 83 12" version="1.1" xmlns="http://www.w3.org/2000/svg" xmlns:xlink="http://www.w3.org/1999/xlink">
    <!-- Generator: Sketch 60 (88103) - https://sketch.com -->
    <title>corwin logo</title>
    <desc>Created with Sketch.</desc>
    <g id="Page-1" stroke="none" stroke-width="1" fill="none" fill-rule="evenodd">
        <g id="Corwin-Landing-Mobile" transform="translate(-36.000000, -448.000000)" fill="#FFFFFF">
            <g id="corwin-logo" transform="translate(36.044944, 448.000000)">
                <path d="M14.6258135,5.74738596 C14.6258135,2.31623392 17.2580298,1.20792265e-13 20.656176,1.20792265e-13 C23.654369,1.20792265e-13 25.120217,1.69980117 25.7871292,3.23166082 L22.8889246,4.5819883 C22.6054626,3.71509942 21.7395444,2.96615789 20.656176,2.96615789 C19.1243164,2.96615789 18.040948,4.19805263 18.040948,5.74738596 C18.040948,7.2967193 19.1243164,8.52861404 20.656176,8.52861404 C21.7395444,8.52861404 22.6054626,7.78015789 22.8889246,6.91278363 L25.7871292,8.24563743 C25.1372053,9.72847368 23.654369,11.4947719 20.656176,11.4947719 C17.2580298,11.4947719 14.6258135,9.16252047 14.6258135,5.74738596" id="Fill-1"></path>
                <path d="M32.3158801,8.52880819 C30.7000497,8.52880819 29.6501725,7.29691345 29.6501725,5.74758012 C29.6501725,4.19824678 30.7000497,2.96489591 32.3158801,2.96489591 C33.9317105,2.96489591 34.9815877,4.19824678 34.9815877,5.74758012 C34.9815877,7.29691345 33.9317105,8.52880819 32.3158801,8.52880819 M32.3158801,0.000194152047 C28.8847281,0.000194152047 26.235038,2.33244561 26.235038,5.74758012 C26.235038,9.16271462 28.8847281,11.4949661 32.3158801,11.4949661 C35.7470322,11.4949661 38.3967222,9.16271462 38.3967222,5.74758012 C38.3967222,2.33244561 35.7470322,0.000194152047 32.3158801,0.000194152047" id="Fill-4"></path>
                <path d="M45.0082789,4.93112222 L42.9590041,4.93112222 L42.9590041,2.98135029 L45.0082789,2.98135029 C45.5747175,2.98135029 46.1076649,3.34829766 46.1076649,3.94871287 C46.1076649,4.56417485 45.5747175,4.93112222 45.0082789,4.93112222 L45.0082789,4.93112222 Z M47.5240041,7.36287661 C48.4064251,6.9308883 49.5227994,5.91401696 49.5227994,3.99822164 C49.5227994,1.91594094 48.1234485,0.183133918 45.5237526,0.183133918 L39.5943491,0.183133918 L39.5943491,11.2949409 L42.9590041,11.2949409 L42.9590041,7.72982398 L44.1748813,7.72982398 L45.7072263,11.2949409 L49.5397877,11.2949409 L47.5240041,7.36287661 Z" id="Fill-7"></path>
                <polygon id="Fill-9" points="62.2980526 0.183279532 60.8826842 6.98005731 59.199386 0.183279532 56.6676433 0.183279532 54.9853158 6.98005731 53.5524737 0.183279532 49.7868947 0.183279532 52.9690468 11.2950865 56.5016433 11.2950865 57.934 4.99776491 59.3663567 11.2950865 62.8984678 11.2950865 66.0801345 0.183279532"></polygon>
                <polygon id="Fill-11" points="66.777917 11.2949409 70.1430573 11.2949409 70.1430573 0.183133918 66.777917 0.183133918"></polygon>
                <polygon id="Fill-13" points="79.2712129 0.183279532 79.2712129 5.78068304 75.4071018 0.183279532 71.9410023 0.183279532 71.9410023 11.2950865 75.3061427 11.2950865 75.3061427 5.33122105 79.404207 11.2950865 82.6363532 11.2950865 82.6363532 0.183279532"></polygon>
                <path d="M11.1122924,2.30754561 L11.1122924,0.191773684 L1.15463195e-13,0.191773684 L1.15463195e-13,11.3030953 L11.1122924,11.3030953 L11.1122924,5.01111287 L6.12307018,5.17808363 C6.12307018,5.17808363 7.54717544,4.39565088 11.1122924,3.69621813 L11.1122924,3.67777368 L5.77311111,3.85639357 C5.77311111,3.85639357 7.2894386,3.02348129 11.1122924,2.30754561" id="Fill-14"></path>
            </g>
        </g>
    </g>
</svg>