<?xml version="1.0" encoding="UTF-8"?>
<svg width="130px" height="99px" viewBox="0 0 130 99" version="1.1" xmlns="http://www.w3.org/2000/svg" xmlns:xlink="http://www.w3.org/1999/xlink">
    <!-- Generator: Sketch 60 (88103) - https://sketch.com -->
    <title>Group 7</title>
    <desc>Created with Sketch.</desc>
    <g id="Page-1" stroke="none" stroke-width="1" fill="none" fill-rule="evenodd">
        <g id="Corvin-Landing-x1920_header" transform="translate(-51.000000, -106.000000)">
            <g id="Group-7" transform="translate(51.733309, 106.327434)">
                <path d="M66.6255519,59.591387 L66.6255519,32.8957907 L82.1056885,17.4156541 L82.1056885,59.591387 L66.6255519,59.591387 Z M46.7619787,17.4156541 L62.2417817,32.8957907 L62.2417817,59.591387 L46.7619787,59.591387 L46.7619787,17.4156541 Z M53.5936681,4.38377026 L61.3337364,12.1238386 L54.5017134,18.955528 L46.7619787,11.2157933 L46.7619787,4.38377026 L53.5936681,4.38377026 Z M64.4338336,9.02407498 L59.7938625,4.38377026 L69.0738047,4.38377026 L64.4338336,9.02407498 Z M64.4338336,28.8876482 L57.6018105,22.0556252 L64.4338336,15.2236021 L71.2655231,22.0556252 L64.4338336,28.8876482 Z M82.1056885,11.2157933 L74.3656202,18.955528 L67.5335972,12.1238386 L75.2736655,4.38377026 L82.1056885,4.38377026 L82.1056885,11.2157933 Z M42.3778748,63.9751572 L86.4891252,63.9751572 L86.4891252,-3.55271368e-14 L42.3778748,-3.55271368e-14 L42.3778748,63.9751572 Z" id="Fill-2" fill="#A39382"></path>
                <path d="M11.253,98.0815664 C17.422,98.0815664 20.584,93.9895664 21.421,90.6105664 L17.422,89.4015664 C16.833,91.4475664 15.004,93.8965664 11.253,93.8965664 C7.719,93.8965664 4.433,91.3235664 4.433,86.6425664 C4.433,81.6515664 7.905,79.2955664 11.191,79.2955664 C15.004,79.2955664 16.709,81.6205664 17.236,83.7285664 L21.266,82.4575664 C20.398,78.8925664 17.267,75.1725664 11.191,75.1725664 C5.301,75.1725664 9.9475983e-14,79.6365664 9.9475983e-14,86.6425664 C9.9475983e-14,93.6485664 5.115,98.0815664 11.253,98.0815664 Z M27.9,86.6115664 C27.9,81.6515664 31.372,79.2955664 34.751,79.2955664 C38.161,79.2955664 41.633,81.6515664 41.633,86.6115664 C41.633,91.5715664 38.161,93.9275664 34.751,93.9275664 C31.372,93.9275664 27.9,91.5715664 27.9,86.6115664 Z M23.467,86.6425664 C23.467,93.7105664 28.799,98.0815664 34.751,98.0815664 C40.734,98.0815664 46.066,93.7105664 46.066,86.6425664 C46.066,79.5435664 40.734,75.1725664 34.751,75.1725664 C28.799,75.1725664 23.467,79.5435664 23.467,86.6425664 Z M60.636,97.6165664 L65.41,97.6165664 L60.698,88.6265664 C63.581,87.7895664 65.379,85.4645664 65.379,82.3955664 C65.379,78.5825664 62.651,75.6375664 58.373,75.6375664 L49.786,75.6375664 L49.786,97.6165664 L54.095,97.6165664 L54.095,89.1535664 L56.327,89.1535664 L60.636,97.6165664 Z M54.095,85.4645664 L54.095,79.3575664 L57.567,79.3575664 C59.737,79.3575664 61.008,80.5665664 61.008,82.4265664 C61.008,84.2245664 59.737,85.4645664 57.567,85.4645664 L54.095,85.4645664 Z M89.528,90.8275664 L84.63,75.6375664 L80.197,75.6375664 L75.33,90.7655664 L71.3,75.6375664 L66.774,75.6375664 L72.881,97.6165664 L77.345,97.6165664 L82.367,81.9615664 L87.389,97.6165664 L91.791,97.6165664 L97.867,75.6375664 L93.496,75.6375664 L89.528,90.8275664 Z M105.09,97.6165664 L105.09,75.6375664 L100.75,75.6375664 L100.75,97.6165664 L105.09,97.6165664 Z M128.867,97.6165664 L124.372,97.6165664 L114.39,82.0235664 L114.39,97.6165664 L110.112,97.6165664 L110.112,75.6375664 L115.444,75.6375664 L124.589,90.1765664 L124.589,75.6375664 L128.867,75.6375664 L128.867,97.6165664 Z" id="CORWIN" fill="#FFFFFF" fill-rule="nonzero"></path>
            </g>
        </g>
    </g>
</svg>