<?xml version="1.0" encoding="UTF-8"?>
<svg width="35px" height="36px" viewBox="0 0 35 36" version="1.1" xmlns="http://www.w3.org/2000/svg" xmlns:xlink="http://www.w3.org/1999/xlink">
    <!-- Generator: Sketch 60 (88103) - https://sketch.com -->
    <title>ic-instagram</title>
    <desc>Created with Sketch.</desc>
    <g id="Page-1" stroke="none" stroke-width="1" fill="none" fill-rule="evenodd">
        <g id="Corwin-Landing-Mobile" transform="translate(-70.000000, -4477.000000)">
            <g id="ic-instagram" transform="translate(70.500000, 4478.000000)">
                <rect id="Rectangle" stroke="#A39382" x="0" y="0" width="34" height="34" rx="17"></rect>
                <path d="M22.928554,12.1605646 C22.928554,11.5596977 22.4410581,11.0722018 21.8401912,11.0722018 C21.2393242,11.0722018 20.7518284,11.5596977 20.7518284,12.1605646 C20.7518284,12.7614316 21.2393242,13.2481716 21.8401912,13.2481716 C22.4410581,13.2481716 22.928554,12.7614316 22.928554,12.1605646 M17,12.3442259 C14.4287429,12.3442259 12.3442259,14.4287429 12.3442259,17 C12.3442259,19.5720129 14.4287429,21.6557741 17,21.6557741 C19.5720129,21.6557741 21.6557741,19.5720129 21.6557741,17 C21.6557741,14.4287429 19.5720129,12.3442259 17,12.3442259 M17,20.0224742 C15.3311771,20.0224742 13.9782816,18.6695787 13.9782816,17 C13.9782816,15.3311771 15.3311771,13.9782816 17,13.9782816 C18.6695787,13.9782816 20.0224742,15.3311771 20.0224742,17 C20.0224742,18.6695787 18.6695787,20.0224742 17,20.0224742 M17,9.56738913 C19.4208514,9.56738913 19.7080582,9.57645882 20.6641547,9.62029565 C21.5484495,9.66035345 22.0283872,9.80773591 22.347338,9.93244415 C22.7705902,10.0972102 23.0729132,10.2929643 23.3895965,10.6104035 C23.7070357,10.9278426 23.9035456,11.2301656 24.0683117,11.6534178 C24.1930199,11.9723686 24.3404024,12.4523063 24.3804602,13.3366011 C24.424297,14.2926976 24.4333667,14.5791486 24.4333667,17 C24.4333667,19.4208514 24.424297,19.7080582 24.3804602,20.6641547 C24.3404024,21.5484495 24.1930199,22.0283872 24.0683117,22.3480938 C23.9035456,22.7705902 23.7070357,23.0729132 23.3895965,23.3895965 C23.0729132,23.7070357 22.7705902,23.9035456 22.347338,24.0683117 C22.0283872,24.1930199 21.5484495,24.3404024 20.6641547,24.3804602 C19.7080582,24.424297 19.4208514,24.4333667 17,24.4333667 C14.5791486,24.4333667 14.2926976,24.424297 13.3366011,24.3804602 C12.4523063,24.3404024 11.9723686,24.1930199 11.6534178,24.0683117 C11.2294098,23.9035456 10.9278426,23.7070357 10.6104035,23.3895965 C10.2929643,23.0729132 10.0964544,22.7705902 9.93244415,22.3480938 C9.80773591,22.0283872 9.66035345,21.5484495 9.62029565,20.6641547 C9.57645882,19.7080582 9.56738913,19.4208514 9.56738913,17 C9.56738913,14.5791486 9.57645882,14.2926976 9.62029565,13.3366011 C9.66035345,12.4523063 9.80773591,11.9723686 9.93244415,11.6534178 C10.0964544,11.2301656 10.2929643,10.9278426 10.6104035,10.6104035 C10.9278426,10.2929643 11.2294098,10.0972102 11.6534178,9.93244415 C11.9723686,9.80773591 12.4523063,9.66035345 13.3366011,9.62029565 C14.2926976,9.57645882 14.5791486,9.56738913 17,9.56738913 M17,7.93333333 C14.5375792,7.93333333 14.2292097,7.94391464 13.2617761,7.98775147 C12.2973658,8.03234411 11.6383017,8.18501723 11.0608647,8.40949205 C10.4652884,8.64152495 9.95889741,8.95140602 9.45552962,9.45552962 C8.95140602,9.95889741 8.64152495,10.4652884 8.40949205,11.0608647 C8.18501723,11.6383017 8.03234411,12.2973658 7.98775147,13.262532 C7.94391464,14.2292097 7.93333333,14.538335 7.93333333,17 C7.93333333,19.4624208 7.94391464,19.7715461 7.98775147,20.7389797 C8.03234411,21.70339 8.18501723,22.3624542 8.40949205,22.9398911 C8.64152495,23.5354674 8.95140602,24.0418584 9.45552962,24.545982 C9.95889741,25.0493498 10.4652884,25.3592309 11.0608647,25.5912638 C11.6383017,25.8149828 12.2973658,25.9691675 13.2617761,26.0122485 C14.2292097,26.0568412 14.5375792,26.0666667 17,26.0666667 C19.4624208,26.0666667 19.7715461,26.0568412 20.7389797,26.0122485 C21.70339,25.9691675 22.3624542,25.8149828 22.9398911,25.5912638 C23.5354674,25.3592309 24.0418584,25.0493498 24.5452262,24.545982 C25.0493498,24.0418584 25.3592309,23.5354674 25.5905079,22.9398911 C25.8149828,22.3624542 25.9684117,21.70339 26.0122485,20.7389797 C26.0568412,19.7715461 26.0666667,19.4624208 26.0666667,17 C26.0666667,14.538335 26.0568412,14.2292097 26.0122485,13.262532 C25.9684117,12.2973658 25.8149828,11.6383017 25.5905079,11.0608647 C25.3592309,10.4652884 25.0493498,9.95889741 24.5452262,9.45552962 C24.0418584,8.95140602 23.5354674,8.64152495 22.9398911,8.40949205 C22.3624542,8.18501723 21.70339,8.03234411 20.7389797,7.98775147 C19.7715461,7.94391464 19.4624208,7.93333333 17,7.93333333" id="in-copy-2" fill="#FFFFFF" opacity="0.900000036"></path>
            </g>
        </g>
    </g>
</svg>