<?xml version="1.0" encoding="UTF-8"?>
<svg width="36px" height="36px" viewBox="0 0 36 36" version="1.1" xmlns="http://www.w3.org/2000/svg" xmlns:xlink="http://www.w3.org/1999/xlink">
    <!-- Generator: Sketch 60 (88103) - https://sketch.com -->
    <title>ic-linkedin</title>
    <desc>Created with Sketch.</desc>
    <g id="Page-1" stroke="none" stroke-width="1" fill="none" fill-rule="evenodd">
        <g id="Corwin-Landing-Mobile" transform="translate(-120.000000, -4477.000000)">
            <g id="ic-linkedin" transform="translate(121.000000, 4478.000000)">
                <rect id="Rectangle" stroke="#A39382" x="0" y="0" width="34" height="34" rx="17"></rect>
                <path d="M26.4883418,19.0508656 L26.4883418,26.0666667 L22.4210241,26.0666667 L22.4210241,19.5207417 C22.4210241,17.8763519 21.8327304,16.7541203 20.3604962,16.7541203 C19.2366321,16.7541203 18.5678198,17.5104222 18.2735847,18.242017 C18.1662853,18.5035593 18.1386663,18.8675919 18.1386663,19.2336981 L18.1386663,26.0666667 L14.0699808,26.0666667 C14.0699808,26.0666667 14.1247777,14.9800183 14.0699808,13.8313588 L18.1382692,13.8313588 L18.1382692,15.5656647 C18.1300188,15.578636 18.1192977,15.5926219 18.1115326,15.6051961 L18.1382692,15.6051961 L18.1382692,15.5656647 C18.6787811,14.7331679 19.6440786,13.5439182 21.8047143,13.5439182 C24.481596,13.5439182 26.4883418,15.2926513 26.4883418,19.0508656 Z M9.81396262,7.93333333 C8.42207061,7.93333333 7.51165818,8.84630472 7.51165818,10.0468932 C7.51165818,11.2213186 8.39573108,12.1619973 9.75995997,12.1619973 L9.78713778,12.1619973 C11.205987,12.1619973 12.0883833,11.2214951 12.0883833,10.0468932 C12.0616467,8.84630472 11.205987,7.93333333 9.81396262,7.93333333 Z M7.75330242,26.0666667 L11.8204437,26.0666667 L11.8204437,13.8313588 L7.75330242,13.8313588 L7.75330242,26.0666667 Z" id="LinkedIn" fill="#FFFFFF" fill-rule="nonzero" opacity="0.900000036"></path>
            </g>
        </g>
    </g>
</svg>