<?xml version="1.0" encoding="UTF-8"?>
<svg width="233px" height="56px" viewBox="0 0 233 56" version="1.1" xmlns="http://www.w3.org/2000/svg" xmlns:xlink="http://www.w3.org/1999/xlink">
    <!-- Generator: Sketch 60 (88103) - https://sketch.com -->
    <title>Made_by_corwin-Logo</title>
    <desc>Created with Sketch.</desc>
    <g id="Page-1" stroke="none" stroke-width="1" fill="none" fill-rule="evenodd">
        <g id="Corvin-Landing-x1920_header" transform="translate(-1495.000000, -7357.000000)" fill="#FFFFFF">
            <g id="Made_by_corwin-Logo" transform="translate(1495.000000, 7357.000000)">
                <path d="M14.5166154,35.3510538 C17.1219231,35.3510538 19.2085385,37.1575923 19.8905385,39.2467462 L26.8662308,35.9915923 C25.2610769,32.2972846 21.7317692,28.2002077 14.5166154,28.2002077 C6.336,28.2002077 0,33.7839769 0,42.0568231 C0,50.2907462 6.336,55.9134385 14.5166154,55.9134385 C21.7317692,55.9134385 25.3016923,51.6555923 26.8662308,48.0797462 L19.8905385,44.8660538 C19.2085385,46.9569 17.1219231,48.7625923 14.5166154,48.7625923 C10.8273846,48.7625923 8.22123077,45.7909 8.22123077,42.0568231 C8.22123077,38.3210538 10.8273846,35.3510538 14.5166154,35.3510538" id="Fill-1"></path>
                <path d="M42.5818462,48.7631 C38.6912308,48.7631 36.1646154,45.7931 36.1646154,42.0573308 C36.1646154,38.3215615 38.6912308,35.3481769 42.5818462,35.3481769 C46.4716154,35.3481769 48.9973846,38.3215615 48.9973846,42.0573308 C48.9973846,45.7931 46.4716154,48.7631 42.5818462,48.7631 M42.5818462,28.1998692 C34.3216923,28.1998692 27.9433846,33.8234077 27.9433846,42.0573308 C27.9433846,50.2912538 34.3216923,55.9122538 42.5818462,55.9122538 C50.8411538,55.9122538 57.2186154,50.2912538 57.2186154,42.0573308 C57.2186154,33.8234077 50.8411538,28.1998692 42.5818462,28.1998692" id="Fill-3"></path>
                <path d="M73.1334154,40.0883308 L68.2011846,40.0883308 L68.2011846,35.3871 L73.1334154,35.3871 C74.4957231,35.3871 75.7801846,36.2713308 75.7801846,37.7199462 C75.7801846,39.2041 74.4957231,40.0883308 73.1334154,40.0883308 M84.0014154,37.8384077 C84.0014154,32.8181769 80.6311846,28.6415615 74.3747231,28.6415615 L60.1018,28.6415615 L60.1018,55.4307923 L68.2011846,55.4307923 L68.2011846,46.8364077 L71.1280308,46.8364077 L74.8164154,55.4307923 L84.0420308,55.4307923 L79.1884923,45.9521769 C81.3140308,44.9097154 84.0014154,42.4584077 84.0014154,37.8384077" id="Fill-5"></path>
                <polygon id="Fill-7" points="111.345892 45.0289385 107.292815 28.6423231 101.199662 28.6423231 97.1499692 45.0289385 93.7010462 28.6423231 84.6370462 28.6423231 92.2964308 55.4324 100.799431 55.4324 104.247508 40.2498615 107.695585 55.4324 116.196892 55.4324 123.855431 28.6423231 114.751662 28.6423231"></polygon>
                <polygon id="Fill-9" points="125.535892 55.4312154 133.633585 55.4312154 133.633585 28.6428308 125.535892 28.6428308"></polygon>
                <polygon id="Fill-11" points="155.608708 28.6421538 155.608708 42.1366154 146.306092 28.6421538 137.964708 28.6421538 137.964708 55.4322308 146.063246 55.4322308 146.063246 41.0526923 155.927708 55.4322308 163.707246 55.4322308 163.707246 28.6421538"></polygon>
                <path d="M232.419423,11.3596308 L232.419423,1.00016923 L178.103962,1.00016923 L178.103962,55.3994 L232.419423,55.3994 L232.419423,24.5951692 L208.031577,25.4125538 C208.031577,25.4125538 214.992885,21.5820154 232.419423,18.1593231 L232.419423,18.0679385 L206.323192,18.9428615 C206.323192,18.9428615 213.732115,14.8635538 232.419423,11.3596308" id="Fill-12"></path>
                <g id="Group-4" transform="translate(72.071915, 0.000000)">
                    <polygon id="Fill-13" points="-5.68434189e-14 0.659947036 2.88263492 0.659947036 7.57023318 7.94378957 12.2578314 0.659947036 15.1404664 0.659947036 15.1404664 16.0633933 12.4341919 16.0633933 12.4341919 5.01667437 7.57023318 12.2786669 7.48205295 12.2786669 2.66257454 5.06115466 2.66257454 16.0633933 -5.68434189e-14 16.0633933"></polygon>
                    <path d="M25.9849951,11.8821681 L25.9849951,11.0901068 C25.302964,10.8263465 24.4008725,10.628136 23.3442705,10.628136 C21.6056375,10.628136 20.6153657,11.3327975 20.6153657,12.5649795 L20.6153657,12.6094598 C20.6153657,13.7308313 21.5837875,14.3699429 22.8815194,14.3699429 C24.6420025,14.3699429 25.9849951,13.3788908 25.9849951,11.8821681 M17.9972715,12.7187097 L17.9972715,12.6757901 C17.9972715,10.1443153 19.9770346,8.93398325 22.8159695,8.93398325 C24.1363318,8.93398325 25.0384233,9.13297402 25.9405148,9.4185843 L25.9405148,9.13297402 C25.9405148,7.45989084 24.9283931,6.60149929 23.0586603,6.60149929 C21.738298,6.60149929 20.7917262,6.88788992 19.7351242,7.32801069 L19.0093932,5.23743707 C20.3079055,4.68650576 21.5619375,4.29086529 23.4098204,4.29086529 C25.1492339,4.29086529 26.4243355,4.73098605 27.2616575,5.5893776 C28.120049,6.44776916 28.5156895,7.6573209 28.5156895,9.1758936 L28.5156895,16.0633153 L25.9186648,16.0633153 L25.9186648,14.6118532 C25.1266035,15.5576446 23.9162715,16.306006 22.1331581,16.306006 C19.9551846,16.306006 17.9972715,15.073824 17.9972715,12.7187097" id="Fill-14"></path>
                    <path d="M40.506171,10.2765076 L40.506171,10.2320274 C40.506171,7.98772361 38.921268,6.5136312 37.138935,6.5136312 C35.3121217,6.5136312 33.793549,7.94402368 33.793549,10.2320274 L33.793549,10.2765076 C33.793549,12.5208114 35.3121217,13.9956842 37.138935,13.9956842 C38.921268,13.9956842 40.506171,12.4989614 40.506171,10.2765076 M31.1083441,10.2765076 L31.1083441,10.2320274 C31.1083441,6.35912072 33.7272187,4.2029972 36.5006038,4.2029972 C38.392967,4.2029972 39.6469991,5.14878863 40.4609103,6.24909053 L40.4609103,-7.10542736e-15 L43.1234849,-7.10542736e-15 L43.1234849,16.0636275 L40.4609103,16.0636275 L40.4609103,14.1275643 C39.6032991,15.3378964 38.3711171,16.3063182 36.5006038,16.3063182 C33.771699,16.3063182 31.1083441,14.1494143 31.1083441,10.2765076" id="Fill-15"></path>
                    <path d="M54.4321693,9.43973195 C54.2550285,7.74557916 53.2436872,6.38151694 51.4832042,6.38151694 C49.8319709,6.38151694 48.7098191,7.613699 48.4679087,9.43973195 L54.4321693,9.43973195 Z M45.8279645,10.2989039 L45.8279645,10.2544236 C45.8279645,6.90981793 48.1815181,4.2027631 51.5050541,4.2027631 C55.2023807,4.2027631 57.0728939,7.10802834 57.0728939,10.452634 C57.0728939,10.693764 57.0502636,10.9364547 57.0284136,11.2009954 L48.490539,11.2009954 C48.7761493,13.1152085 50.0957313,14.1491802 51.8351447,14.1491802 C53.155507,14.1491802 54.0357485,13.6645791 54.9823203,12.763268 L56.5438126,14.1491802 C55.422441,15.4703228 53.9264987,16.3271537 51.7914448,16.3271537 C48.4460588,16.3271537 45.8279645,13.8846395 45.8279645,10.2989039 L45.8279645,10.2989039 Z" id="Fill-16"></path>
                    <path d="M75.6625336,10.2765076 L75.6625336,10.2320274 C75.6625336,7.98772361 74.1213306,6.5136312 72.3389976,6.5136312 C70.5121843,6.5136312 68.9499116,8.01035394 68.9499116,10.2320274 L68.9499116,10.2765076 C68.9499116,12.4989614 70.5121843,13.9956842 72.3389976,13.9956842 C74.1658109,13.9956842 75.6625336,12.5652917 75.6625336,10.2765076 M69.0162419,14.2594445 L69.0162419,16.0636275 L66.3318174,16.0636275 L66.3318174,-7.10542736e-15 L69.0162419,-7.10542736e-15 L69.0162419,6.38175105 C69.8746334,5.17141895 71.0623352,4.2029972 72.9773287,4.2029972 C75.7062335,4.2029972 78.3688081,6.35912072 78.3688081,10.2320274 L78.3688081,10.2765076 C78.3688081,14.1494143 75.7280835,16.3063182 72.9773287,16.3063182 C71.0404852,16.3063182 69.8309335,15.3378964 69.0162419,14.2594445" id="Fill-17"></path>
                    <path d="M88.6207345,4.44514166 L91.3933392,4.44514166 L86.7720712,16.3721022 C85.8254995,18.770136 84.8133778,19.6511579 82.9428645,19.6511579 C81.8207127,19.6511579 81.006021,19.3866172 80.1921098,18.9246465 L81.0942013,16.9667334 C81.6006523,17.2304937 82.1071033,17.4060738 82.6564739,17.4060738 C83.4274656,17.4060738 83.8675864,17.0759832 84.3077071,16.0864919 L79.4663787,4.44514166 L82.3271637,4.44514166 L85.5835891,13.0711965 L88.6207345,4.44514166 Z" id="Fill-18"></path>
                </g>
            </g>
        </g>
    </g>
</svg>