<?xml version="1.0" encoding="UTF-8"?>
<svg width="81px" height="99px" viewBox="0 0 81 99" version="1.1" xmlns="http://www.w3.org/2000/svg" xmlns:xlink="http://www.w3.org/1999/xlink">
    <!-- Generator: Sketch 60 (88103) - https://sketch.com -->
    <title>pin1</title>
    <desc>Created with Sketch.</desc>
    <g id="Page-1" stroke="none" stroke-width="1" fill="none" fill-rule="evenodd">
        <g id="Corvin-Landing-x1920_header" transform="translate(-861.000000, -5665.000000)">
            <g id="pin1" transform="translate(861.870689, 5665.295340)">
                <circle id="Oval" fill="#A39382" opacity="0.200000003" cx="39.7786615" cy="39.7786615" r="39.7786615"></circle>
                <path d="M39.7818504,98.2619826 L64.9967088,61.8441731 C74.4541298,49.2359221 73.0866334,28.5114485 62.0694118,17.4958706 C56.1162004,11.5410155 48.2005001,8.26198265 39.7818504,8.26198265 C31.3632007,8.26198265 23.4475005,11.5410155 17.494289,17.4942269 C6.47706747,28.5098048 5.10957107,49.2342784 14.5291887,61.7932207 L39.7818504,98.2619826 Z" id="Path" fill="#173F35" fill-rule="nonzero"></path>
                <path d="M41.1490264,59.5209284 L41.1490264,42.8297794 L50.827837,33.1512931 L50.827837,59.5209284 L41.1490264,59.5209284 Z M28.7294859,33.1512931 L38.4082965,42.8297794 L38.4082965,59.5209284 L28.7294859,59.5209284 L28.7294859,33.1512931 Z M33.0010945,25.0030368 L37.8404998,29.8424421 L33.5688912,34.1137264 L28.7294859,29.2746454 L28.7294859,25.0030368 L33.0010945,25.0030368 Z M39.7786615,27.9042804 L36.8774179,25.0030368 L42.679905,25.0030368 L39.7786615,27.9042804 Z M39.7786615,40.3238209 L35.5070529,36.0522124 L39.7786615,31.7806039 L44.05027,36.0522124 L39.7786615,40.3238209 Z M50.827837,29.2746454 L45.9884317,34.1137264 L41.7168232,29.8424421 L46.5562285,25.0030368 L50.827837,25.0030368 L50.827837,29.2746454 Z M25.9884317,62.2619826 L53.5688912,62.2619826 L53.5688912,22.2619826 L25.9884317,22.2619826 L25.9884317,62.2619826 Z" id="Fill-1" fill="#A39382"></path>
            </g>
        </g>
    </g>
</svg>